# xmcd
#
# Track frame offsets:
#	183
#	19233
#	39000
#	58493
#	73608
#	90240
#	105538
#	123068
#	140608
#	160903
#
# Disc length: 2440 seconds
#
# Revision: 0
# Processed by: cddbd v1.5.1PL0 Copyright (c) Steve Scherf et al.
# Submitted via: dBpowerAMP V4.0
#
DISCID=7c09860a
DTITLE=Fool House - Running on soft ground
DYEAR=1988
DGENRE=Blues
TTITLE0=Redneck
TTITLE1=Bitter taste
TTITLE2=Feel ma pain
TTITLE3=One more week-end
TTITLE4=Roll away the stone
TTITLE5=one good reason
TTITLE6=Easy on my soul
TTITLE7=Casa dega
TTITLE8=Highway 95
TTITLE9=Long electric night
EXTD=
EXTT0=
EXTT1=
EXTT2=
EXTT3=
EXTT4=
EXTT5=
EXTT6=
EXTT7=
EXTT8=
EXTT9=
PLAYORDER=
